<svg width="170" height="52" viewBox="0 0 170 52" fill="none" xmlns="http://www.w3.org/2000/svg">
<g clip-path="url(#clip0_8_336)">
<path d="M14.1373 28.3737C14.1373 25.5501 12.0136 23.5655 9.40482 23.5655C6.79606 23.5655 4.67228 25.5835 4.67228 28.3737C4.67228 31.1305 6.79606 33.182 9.40482 33.182C12.0162 33.1793 14.1373 31.1974 14.1373 28.3737ZM14.1746 36.7779V34.5925C12.8876 36.1061 10.9716 37.0455 8.67735 37.0455C3.91018 37.0455 0.291504 33.3467 0.291504 28.3737C0.291504 23.4317 4.04874 19.6685 8.78393 19.6685C11.0117 19.6685 12.8903 20.6106 14.1773 22.088V19.9696H18.4568V36.7779H14.1746Z" fill="#F06527"/>
<path d="M39.244 33.0456C37.7465 33.0456 37.3307 32.5075 37.3307 31.097V23.635H40.0807V19.9696H37.3307V15.8692H32.9447V19.9696H27.2955V18.9477C27.2955 17.5346 27.8524 16.9967 29.3847 16.9967H30.3466V13.7354H28.2361C24.6174 13.7354 22.912 14.8783 22.912 18.3737V19.967H20.4765V23.6324H22.912V36.7752H27.2982V23.6324H32.9473V31.8692C32.9473 35.2977 34.3037 36.7779 37.8531 36.7779H40.1154V33.0456H39.244Z" fill="#F06527"/>
<path d="M54.974 26.8602C54.6622 24.6748 52.8156 23.3646 50.6598 23.3646C48.5014 23.3646 46.7267 24.6414 46.2764 26.8602H54.974ZM46.2391 29.4831C46.5536 31.9695 48.3975 33.3827 50.7291 33.3827C52.5731 33.3827 54.0014 32.5409 54.8354 31.1973H59.3254C58.2809 34.7597 54.974 37.0455 50.6253 37.0455C45.3704 37.0455 41.6825 33.483 41.6825 28.4071C41.6825 23.3312 45.581 19.6658 50.7318 19.6658C55.9173 19.6658 59.6746 23.3647 59.6746 28.4071C59.6746 28.7778 59.6399 29.1459 59.5706 29.4831H46.2391Z" fill="#F06527"/>
<path d="M87.5607 28.3737C87.5607 25.6504 85.437 23.5655 82.8282 23.5655C80.2195 23.5655 78.0956 25.5835 78.0956 28.3737C78.0956 31.1305 80.2195 33.182 82.8282 33.182C85.437 33.1793 87.5607 31.097 87.5607 28.3737ZM73.7788 19.9696H78.0583V22.155C79.3454 20.608 81.2586 19.6685 83.5556 19.6685C88.2535 19.6685 91.9415 23.4008 91.9415 28.3403C91.9415 33.2823 88.1842 37.0481 83.4517 37.0481C81.2587 37.0481 79.4493 36.2064 78.1969 34.7959V43.6942H73.7788V19.9696Z" fill="#F06527"/>
<path d="M107.367 28.3737C107.367 25.5501 105.246 23.5655 102.635 23.5655C100.026 23.5655 97.9023 25.5835 97.9023 28.3737C97.9023 31.1305 100.026 33.182 102.635 33.182C105.246 33.1793 107.367 31.1974 107.367 28.3737ZM107.405 36.7779V34.5925C106.118 36.1061 104.201 37.0455 101.907 37.0455C97.1402 37.0455 93.5216 33.3467 93.5216 28.3737C93.5216 23.4317 97.2789 19.6685 102.011 19.6685C104.239 19.6685 106.118 20.6106 107.405 22.088V19.9696H111.685V36.7779H107.405Z" fill="#F06527"/>
<path d="M66.0644 21.617C66.0644 21.617 67.1544 19.6685 69.8216 19.6685C70.9622 19.6685 71.7003 20.0468 71.7003 20.0468V24.3351C71.7003 24.3351 70.0908 23.375 68.6119 23.5681C67.133 23.7611 66.1977 25.0738 66.203 26.8293V36.7804H61.7849V19.9722H66.0644V21.617Z" fill="#F06527"/>
<path d="M131.672 19.9696L120.867 43.6401H116.31L120.552 34.4895L113.379 19.9696H118.544L122.74 29.671L127.046 19.9696H131.672Z" fill="#F06527"/>
<path d="M166.165 19.5887L155.453 13.617C152.308 11.8641 148.378 14.0546 148.378 17.5629V18.1755C148.378 18.7289 148.684 19.2412 149.179 19.5166L151.202 20.644C151.796 20.9761 152.537 20.5616 152.537 19.9001V18.3763C152.537 17.6144 153.39 17.1382 154.072 17.5192L163.35 22.6929C164.033 23.0739 164.033 24.0262 163.35 24.4047L154.072 29.5784C153.39 29.9593 152.537 29.4831 152.537 28.7212V27.9103C152.537 24.402 148.607 22.209 145.46 23.9644L134.748 29.9361C131.603 31.6891 131.603 36.0751 134.748 37.828L145.46 43.7997C148.604 45.5525 152.537 43.3621 152.537 39.8538V39.2411C152.537 38.6877 152.231 38.178 151.735 37.9L149.712 36.7701C149.118 36.438 148.378 36.8524 148.378 37.514V39.0378C148.378 39.7997 147.525 40.2758 146.842 39.8949L137.564 34.7212C136.882 34.3402 136.882 33.3879 137.564 33.0069L146.842 27.8331C147.525 27.4522 148.378 27.9284 148.378 28.6903V29.5011C148.378 33.0095 152.308 35.2026 155.453 33.4471L166.165 27.4754C169.309 25.7276 169.309 21.3415 166.165 19.5887Z" fill="#F06527"/>
</g>
<defs>
<clipPath id="clip0_8_336">
<rect width="169" height="52" fill="white" transform="translate(0.291504)"/>
</clipPath>
</defs>
</svg>
