<svg width="165" height="60" viewBox="0 0 165 60" fill="none" xmlns="http://www.w3.org/2000/svg">
<rect width="165" height="60" rx="9.0566" fill="#090909"/>
<path d="M38.5511 30.5493C38.5841 28.0018 39.9599 25.5914 42.1425 24.2571C40.7656 22.3017 38.4594 21.0619 36.06 20.9873C33.5008 20.7202 31.0198 22.51 29.7157 22.51C28.3864 22.51 26.3785 21.0138 24.2164 21.058C21.3981 21.1486 18.7708 22.7419 17.3996 25.1919C14.4522 30.2663 16.6507 37.7238 19.4741 41.8255C20.8867 43.834 22.5376 46.0775 24.6978 45.9979C26.8117 45.9108 27.6012 44.6576 30.1528 44.6576C32.6807 44.6576 33.4215 45.9979 35.6255 45.9474C37.8938 45.9107 39.3229 43.9299 40.6859 41.9024C41.7009 40.4713 42.4819 38.8896 43 37.216C40.3343 36.0948 38.5542 33.4273 38.5511 30.5493Z" fill="white"/>
<path d="M34.388 18.2898C35.6248 16.8135 36.2341 14.9159 36.0866 13C34.1971 13.1973 32.4517 14.0953 31.1982 15.515C29.9725 16.9022 29.3346 18.7664 29.4552 20.609C31.3454 20.6284 33.2036 19.7547 34.388 18.2898Z" fill="white"/>
<path d="M111.701 28.9061V31.9664H109.788V33.9734H111.701V40.7927C111.701 43.1212 112.751 44.0526 115.394 44.0526C115.858 44.0526 116.3 43.9972 116.687 43.9306V41.9458C116.356 41.9791 116.146 42.0013 115.781 42.0013C114.598 42.0013 114.078 41.4469 114.078 40.1828V33.9734H116.687V31.9664H114.078V28.9061H111.701Z" fill="white"/>
<path d="M123.419 44.2189C126.935 44.2189 129.091 41.8571 129.091 37.943C129.091 34.051 126.924 31.6782 123.419 31.6782C119.903 31.6782 117.736 34.051 117.736 37.943C117.736 41.8571 119.892 44.2189 123.419 44.2189ZM123.419 42.1011C121.351 42.1011 120.19 40.582 120.19 37.943C120.19 35.3262 121.351 33.796 123.419 33.796C125.475 33.796 126.647 35.3262 126.647 37.943C126.647 40.5709 125.475 42.1011 123.419 42.1011Z" fill="white"/>
<path d="M130.936 43.9861H133.313V36.8563C133.313 35.1599 134.584 34.0178 136.386 34.0178C136.807 34.0178 137.514 34.0954 137.713 34.1619V31.8112C137.459 31.7447 137.006 31.7114 136.652 31.7114C135.082 31.7114 133.744 32.5763 133.401 33.7627H133.224V31.911H130.936V43.9861Z" fill="white"/>
<path d="M143.616 33.7073C145.373 33.7073 146.523 34.9381 146.579 36.8342H140.498C140.63 34.9492 141.858 33.7073 143.616 33.7073ZM146.568 40.7261C146.125 41.6686 145.141 42.1898 143.704 42.1898C141.802 42.1898 140.575 40.8481 140.498 38.7303V38.5972H149V37.7656C149 33.9734 146.977 31.6782 143.627 31.6782C140.232 31.6782 138.076 34.1287 138.076 37.9873C138.076 41.846 140.188 44.2189 143.638 44.2189C146.391 44.2189 148.314 42.8883 148.856 40.7261H146.568Z" fill="white"/>
<path d="M96.1119 39.5269C96.2953 42.492 98.7591 44.3883 102.426 44.3883C106.345 44.3883 108.798 42.4001 108.798 39.2281C108.798 36.7342 107.4 35.3551 104.008 34.5621L102.186 34.1139C100.031 33.6082 99.1602 32.9302 99.1602 31.7464C99.1602 30.2524 100.512 29.2755 102.541 29.2755C104.466 29.2755 105.795 30.2294 106.036 31.7579H108.534C108.385 28.9652 105.933 27 102.575 27C98.9654 27 96.5589 28.9652 96.5589 31.9188C96.5589 34.3553 97.9226 35.8033 100.914 36.5044L103.045 37.0216C105.234 37.5387 106.196 38.2972 106.196 39.5614C106.196 41.0325 104.684 42.1013 102.621 42.1013C100.409 42.1013 98.8737 41.1014 98.656 39.5269H96.1119Z" fill="white"/>
<path d="M71.4873 31.7114C69.8509 31.7114 68.4357 32.5319 67.7059 33.9069H67.529V31.911H65.2404V48H67.6175V42.1565H67.8055C68.4357 43.4317 69.7956 44.1857 71.5094 44.1857C74.5499 44.1857 76.4848 41.7795 76.4848 37.943C76.4848 34.1065 74.5499 31.7114 71.4873 31.7114ZM70.8128 42.0456C68.8227 42.0456 67.5733 40.4711 67.5733 37.9541C67.5733 35.426 68.8227 33.8514 70.8239 33.8514C72.8361 33.8514 74.0413 35.3927 74.0413 37.943C74.0413 40.5044 72.8361 42.0456 70.8128 42.0456Z" fill="white"/>
<path d="M84.8028 31.7114C83.1664 31.7114 81.7512 32.5319 81.0215 33.9069H80.8445V31.911H78.5559V48H80.933V42.1565H81.121C81.7512 43.4317 83.1111 44.1857 84.8249 44.1857C87.8654 44.1857 89.8003 41.7795 89.8003 37.943C89.8003 34.1065 87.8654 31.7114 84.8028 31.7114ZM84.1283 42.0456C82.1381 42.0456 80.8888 40.4711 80.8888 37.9541C80.8888 35.426 82.1381 33.8514 84.1394 33.8514C86.1516 33.8514 87.3568 35.3927 87.3568 37.943C87.3568 40.5044 86.1516 42.0456 84.1283 42.0456Z" fill="white"/>
<path d="M60.9754 43.9861H63.7028L57.7323 27.4022H54.9705L49 43.9861H51.6357L53.1599 39.5844H59.4627L60.9754 43.9861ZM56.2196 30.4133H56.4144L58.8095 37.4238H53.8131L56.2196 30.4133Z" fill="white"/>
<path d="M49 15.3238V21.9042H51.3452C53.2809 21.9042 54.4017 20.6958 54.4017 18.5935C54.4017 16.5231 53.2719 15.3238 51.3452 15.3238H49ZM50.0083 16.2541H51.2327C52.5786 16.2541 53.3754 17.1205 53.3754 18.6072C53.3754 20.1166 52.5921 20.9739 51.2327 20.9739H50.0083V16.2541Z" fill="white"/>
<path d="M57.8345 22C59.2659 22 60.1437 21.0287 60.1437 19.4189C60.1437 17.8182 59.2614 16.8423 57.8345 16.8423C56.403 16.8423 55.5208 17.8182 55.5208 19.4189C55.5208 21.0287 56.3985 22 57.8345 22ZM57.8345 21.129C56.9927 21.129 56.5201 20.5042 56.5201 19.4189C56.5201 18.3427 56.9927 17.7134 57.8345 17.7134C58.6718 17.7134 59.1489 18.3427 59.1489 19.4189C59.1489 20.4997 58.6718 21.129 57.8345 21.129Z" fill="white"/>
<path d="M67.6188 16.9381H66.651L65.7777 20.7277H65.7012L64.6929 16.9381H63.7656L62.7572 20.7277H62.6852L61.8074 16.9381H60.8261L62.1766 21.9042H63.1714L64.1797 18.2469H64.2562L65.269 21.9042H66.2729L67.6188 16.9381Z" fill="white"/>
<path d="M68.7333 21.9042H69.7011V18.9993C69.7011 18.2241 70.1558 17.7407 70.8715 17.7407C71.5872 17.7407 71.9293 18.1375 71.9293 18.9355V21.9042H72.8972V18.6893C72.8972 17.5081 72.294 16.8423 71.2001 16.8423C70.4619 16.8423 69.9757 17.1752 69.7372 17.727H69.6651V16.9381H68.7333V21.9042Z" fill="white"/>
<path d="M74.4213 21.9042H75.3891V15H74.4213V21.9042Z" fill="white"/>
<path d="M79.029 22C80.4604 22 81.3382 21.0287 81.3382 19.4189C81.3382 17.8182 80.4559 16.8423 79.029 16.8423C77.5975 16.8423 76.7153 17.8182 76.7153 19.4189C76.7153 21.0287 77.593 22 79.029 22ZM79.029 21.129C78.1872 21.129 77.7146 20.5042 77.7146 19.4189C77.7146 18.3427 78.1872 17.7134 79.029 17.7134C79.8663 17.7134 80.3434 18.3427 80.3434 19.4189C80.3434 20.4997 79.8663 21.129 79.029 21.129Z" fill="white"/>
<path d="M84.2218 21.1609C83.6952 21.1609 83.3125 20.901 83.3125 20.4541C83.3125 20.0163 83.6186 19.7837 84.2938 19.7381L85.4912 19.6606V20.0756C85.4912 20.6912 84.9511 21.1609 84.2218 21.1609ZM83.9743 21.9863C84.618 21.9863 85.1536 21.7036 85.4462 21.2065H85.5227V21.9042H86.4545V18.5114C86.4545 17.4625 85.7613 16.8423 84.5324 16.8423C83.4206 16.8423 82.6283 17.3896 82.5293 18.2423H83.4656C83.5736 17.8912 83.9472 17.6906 84.4874 17.6906C85.1491 17.6906 85.4912 17.987 85.4912 18.5114V18.9401L84.1633 19.0176C82.9974 19.0906 82.3402 19.6059 82.3402 20.4997C82.3402 21.4072 83.0289 21.9863 83.9743 21.9863Z" fill="white"/>
<path d="M89.7388 21.9863C90.414 21.9863 90.9857 21.6625 91.2783 21.1199H91.3548V21.9042H92.2821V15H91.3143V17.727H91.2422C90.9767 17.1798 90.4095 16.856 89.7388 16.856C88.5009 16.856 87.7041 17.8502 87.7041 19.4189C87.7041 20.9922 88.4919 21.9863 89.7388 21.9863ZM90.0134 17.7362C90.8236 17.7362 91.3323 18.3883 91.3323 19.4235C91.3323 20.4632 90.8281 21.1062 90.0134 21.1062C89.1941 21.1062 88.7034 20.4723 88.7034 19.4189C88.7034 18.3746 89.1986 17.7362 90.0134 17.7362Z" fill="white"/>
<path d="M98.558 22C99.9894 22 100.867 21.0287 100.867 19.4189C100.867 17.8182 99.9849 16.8423 98.558 16.8423C97.1265 16.8423 96.2442 17.8182 96.2442 19.4189C96.2442 21.0287 97.122 22 98.558 22ZM98.558 21.129C97.7162 21.129 97.2435 20.5042 97.2435 19.4189C97.2435 18.3427 97.7162 17.7134 98.558 17.7134C99.3952 17.7134 99.8724 18.3427 99.8724 19.4189C99.8724 20.4997 99.3952 21.129 98.558 21.129Z" fill="white"/>
<path d="M102.148 21.9042H103.116V18.9993C103.116 18.2241 103.571 17.7407 104.286 17.7407C105.002 17.7407 105.344 18.1375 105.344 18.9355V21.9042H106.312V18.6893C106.312 17.5081 105.709 16.8423 104.615 16.8423C103.877 16.8423 103.391 17.1752 103.152 17.727H103.08V16.9381H102.148V21.9042Z" fill="white"/>
<path d="M110.769 15.7023V16.9609H109.991V17.7863H110.769V20.5909C110.769 21.5485 111.197 21.9316 112.273 21.9316C112.462 21.9316 112.642 21.9088 112.8 21.8814V21.0651C112.665 21.0788 112.579 21.0879 112.43 21.0879C111.949 21.0879 111.737 20.8599 111.737 20.3401V17.7863H112.8V16.9609H111.737V15.7023H110.769Z" fill="white"/>
<path d="M114.099 21.9042H115.066V19.0039C115.066 18.2515 115.508 17.7453 116.3 17.7453C116.984 17.7453 117.349 18.1466 117.349 18.9401V21.9042H118.317V18.6984C118.317 17.5173 117.673 16.8469 116.628 16.8469C115.89 16.8469 115.373 17.1798 115.134 17.7362H115.057V15H114.099V21.9042Z" fill="white"/>
<path d="M121.808 17.6769C122.524 17.6769 122.992 18.1831 123.014 18.9629H120.538C120.592 18.1876 121.092 17.6769 121.808 17.6769ZM123.01 20.5635C122.83 20.9511 122.429 21.1655 121.844 21.1655C121.07 21.1655 120.57 20.6137 120.538 19.7427V19.6879H124V19.3459C124 17.7863 123.176 16.8423 121.812 16.8423C120.43 16.8423 119.553 17.8502 119.553 19.4371C119.553 21.0241 120.412 22 121.817 22C122.938 22 123.721 21.4528 123.941 20.5635H123.01Z" fill="white"/>
</svg>
