<svg width="138" height="52" viewBox="0 0 138 52" fill="none" xmlns="http://www.w3.org/2000/svg">
<g clip-path="url(#clip0_8_338)">
<path fill-rule="evenodd" clip-rule="evenodd" d="M133.494 34.6455C133.577 35.5875 134.33 36.7866 135.636 36.7866H136.4C136.696 36.7866 136.939 36.544 136.939 36.2476V19.4498H136.935C136.92 19.1668 136.687 18.9401 136.4 18.9401H134.034C133.747 18.9401 133.513 19.1668 133.498 19.4498H133.494V20.8147C132.044 19.0273 129.758 18.2854 127.466 18.2854C122.255 18.2854 118.03 22.5131 118.03 27.7285C118.03 32.9442 122.255 37.1719 127.466 37.1719C129.758 37.1719 132.257 36.2822 133.494 34.6434V34.6455ZM127.475 33.867C124.161 33.867 121.474 31.1189 121.474 27.7285C121.474 24.3386 124.161 21.5905 127.475 21.5905C130.79 21.5905 133.476 24.3386 133.476 27.7285C133.476 31.1189 130.79 33.867 127.475 33.867Z" fill="#F06527"/>
<path fill-rule="evenodd" clip-rule="evenodd" d="M115.037 26.5311C115.037 21.6313 111.949 18.3259 107.024 18.3259C104.672 18.3259 102.745 19.6865 102.064 20.8553C101.917 19.9414 101.432 18.9807 99.9288 18.9807H99.1624C98.866 18.9807 98.624 19.2236 98.624 19.5199V34.6876C98.624 34.6881 98.624 34.6892 98.624 34.6899V36.3192H98.6269C98.6424 36.6017 98.8765 36.8286 99.1627 36.8286H101.529C101.566 36.8286 101.601 36.8243 101.636 36.8177C101.651 36.8146 101.666 36.8084 101.681 36.8041C101.699 36.7987 101.717 36.7945 101.734 36.7876C101.755 36.7789 101.774 36.7672 101.793 36.7562C101.803 36.7503 101.813 36.7463 101.822 36.7401C101.846 36.7249 101.868 36.7065 101.888 36.6878C101.892 36.6843 101.896 36.682 101.899 36.6788C101.923 36.656 101.945 36.6309 101.963 36.6048C102.023 36.5235 102.059 36.425 102.065 36.3192H102.068V26.3963C102.068 23.7648 104.2 21.6313 106.829 21.6313C109.459 21.6313 111.591 23.7648 111.591 26.3963L111.593 34.6905L111.594 34.6876C111.594 34.695 111.595 34.7025 111.595 34.7103V36.3192H111.598C111.614 36.6017 111.847 36.8286 112.133 36.8286H114.5C114.537 36.8286 114.572 36.8243 114.606 36.8177C114.62 36.8151 114.633 36.8094 114.647 36.8056C114.666 36.7999 114.686 36.7951 114.705 36.7876C114.724 36.7796 114.742 36.7684 114.76 36.7581C114.771 36.7518 114.783 36.7473 114.794 36.7401C114.816 36.7257 114.836 36.7084 114.855 36.6912C114.86 36.6866 114.866 36.6831 114.871 36.6784C114.893 36.6568 114.913 36.6334 114.931 36.6089C114.933 36.607 114.934 36.6056 114.935 36.6037C114.994 36.5231 115.029 36.4257 115.036 36.3206C115.036 36.3198 115.036 36.3192 115.036 36.3192H115.039L115.037 26.5311Z" fill="#F06527"/>
<path fill-rule="evenodd" clip-rule="evenodd" d="M90.3899 34.6455C90.4726 35.5875 91.2261 36.7866 92.5315 36.7866H93.2953C93.5914 36.7866 93.8338 36.5439 93.8338 36.2476V19.4498H93.8307C93.8153 19.1668 93.5811 18.9401 93.2953 18.9401H90.9286C90.6424 18.9401 90.4086 19.1668 90.3926 19.4498H90.3899V20.8147C88.9397 19.0273 86.6535 18.2854 84.3609 18.2854C79.1498 18.2854 74.9255 22.5131 74.9255 27.7285C74.9255 32.9442 79.1498 37.172 84.3609 37.172C86.6535 37.172 89.152 36.2823 90.3896 34.6434L90.3899 34.6455ZM84.3701 33.867C81.0561 33.867 78.3692 31.119 78.3692 27.7285C78.3692 24.3386 81.0561 21.5905 84.3701 21.5905C87.6845 21.5905 90.3709 24.3386 90.3709 27.7285C90.3709 31.119 87.6845 33.867 84.3701 33.867Z" fill="#F06527"/>
<path fill-rule="evenodd" clip-rule="evenodd" d="M60.9298 32.2397C62.5097 33.3351 64.2343 33.8672 65.8915 33.8672C67.4704 33.8672 69.1026 33.048 69.1026 31.6222C69.1026 29.7188 65.546 29.4226 63.3114 28.6625C61.0762 27.9024 59.1512 26.3312 59.1512 23.7867C59.1512 19.8932 62.6178 18.2852 65.8533 18.2852C67.9032 18.2852 70.0183 18.9617 71.3896 19.9308C71.8618 20.2889 71.5742 20.7 71.5742 20.7L70.2652 22.571C70.1181 22.7818 69.8608 22.9638 69.4917 22.7357C69.1223 22.5078 67.8271 21.5903 65.8533 21.5903C63.8791 21.5903 62.69 22.5026 62.69 23.6335C62.69 24.9895 64.2355 25.416 66.0457 25.8782C69.2003 26.7291 72.6414 27.752 72.6414 31.6222C72.6414 35.0527 69.4351 37.1727 65.8915 37.1727C63.2062 37.1727 60.9199 36.4066 59.0024 34.9984C58.6029 34.5983 58.8819 34.2268 58.8819 34.2268L60.1845 32.3653C60.4495 32.0173 60.7836 32.1387 60.9298 32.2397Z" fill="#F06527"/>
<path fill-rule="evenodd" clip-rule="evenodd" d="M51.8312 34.6455C51.9139 35.5875 52.6674 36.7866 53.9727 36.7866H54.7366C55.0327 36.7866 55.2753 36.5439 55.2753 36.2476V19.4498H55.272C55.2565 19.1668 55.0227 18.9401 54.7366 18.9401H52.3699C52.0837 18.9401 51.8499 19.1668 51.834 19.4498H51.8312V20.8147C50.3811 19.0273 48.0949 18.2854 45.8023 18.2854C40.5912 18.2854 36.3667 22.5131 36.3667 27.7285C36.3667 32.9442 40.5912 37.172 45.8023 37.172C48.0949 37.172 50.5933 36.2823 51.8308 34.6434L51.8312 34.6455ZM45.8115 33.867C42.4973 33.867 39.8105 31.119 39.8105 27.7285C39.8105 24.3386 42.4973 21.5905 45.8115 21.5905C49.1257 21.5905 51.8122 24.3386 51.8122 27.7285C51.8122 31.119 49.1257 33.867 45.8115 33.867Z" fill="#F06527"/>
<path fill-rule="evenodd" clip-rule="evenodd" d="M23.1385 28.3711C19.6317 28.3711 16.7887 31.2139 16.7887 34.7211C16.7887 38.228 19.6317 41.0709 23.1385 41.0709C26.6454 41.0709 29.4883 38.228 29.4883 34.7211C29.4883 31.2139 26.6454 28.3711 23.1385 28.3711ZM6.64129 28.3717C3.13443 28.3717 0.291504 31.2139 0.291504 34.7211C0.291504 38.228 3.13443 41.0709 6.64129 41.0709C10.1483 41.0709 12.9914 38.228 12.9914 34.7211C12.9914 31.2139 10.1483 28.3717 6.64129 28.3717ZM21.2396 20.4336C21.2396 23.9408 18.3968 26.784 14.8899 26.784C11.3829 26.784 8.54015 23.9408 8.54015 20.4336C8.54015 16.9272 11.3829 14.084 14.8899 14.084C18.3968 14.084 21.2396 16.9272 21.2396 20.4336Z" fill="#F06527"/>
</g>
<defs>
<clipPath id="clip0_8_338">
<rect width="137.583" height="52" fill="white" transform="translate(0.291504)"/>
</clipPath>
</defs>
</svg>
