<svg width="178" height="52" viewBox="0 0 178 52" fill="none" xmlns="http://www.w3.org/2000/svg">
<g clip-path="url(#clip0_8_341)">
<path d="M49.6797 15.1805H57.937C63.2013 15.1805 67.55 18.2264 67.55 25.1808V26.6421C67.55 33.6494 63.483 36.8009 58.0955 36.8009H49.6797V15.1805ZM54.2925 19.1067V32.8571H57.8314C60.8244 32.8571 62.8315 30.9028 62.8315 26.5541V25.4097C62.8315 21.061 60.7188 19.1067 57.6729 19.1067H54.2925ZM69.9973 19.318H73.6946L74.2932 23.385C74.9974 20.6208 76.7933 19.1419 80.0504 19.1419H81.1948V23.8075H79.2934C75.5432 23.8075 74.6277 25.1104 74.6277 28.8077V36.8538H70.0677V19.318H69.9973ZM82.1104 28.438V27.945C82.1104 22.0821 85.8605 18.8778 90.9663 18.8778C96.1777 18.8778 99.8222 22.0821 99.8222 27.945V28.438C99.8222 34.1952 96.2834 37.2939 90.9663 37.2939C85.3147 37.2411 82.1104 34.2128 82.1104 28.438ZM95.1566 28.3852V27.945C95.1566 24.6878 93.5192 22.7336 90.9135 22.7336C88.3606 22.7336 86.6704 24.5294 86.6704 27.945V28.3852C86.6704 31.5367 88.3078 33.3325 90.9135 33.3325C93.5192 33.2797 95.1566 31.5367 95.1566 28.3852ZM102.217 19.318H106.02L106.46 22.6279C107.375 20.4095 109.33 18.8778 112.217 18.8778C116.671 18.8778 119.612 22.0821 119.612 28.0154V28.5084C119.612 34.2656 116.354 37.3115 112.217 37.3115C109.453 37.3115 107.551 36.0615 106.618 34.0544V42.9103H102.164L102.217 19.318ZM114.981 28.3852V27.9978C114.981 24.5118 113.185 22.7864 110.791 22.7864C108.238 22.7864 106.548 24.7407 106.548 27.9978V28.3323C106.548 31.431 108.185 33.3853 110.738 33.3853C113.361 33.3325 114.981 31.6599 114.981 28.3852ZM126.355 33.6142L125.967 36.8185H122.059V13.4551H126.513V22.4166C127.499 20.1278 129.454 18.8778 132.218 18.8778C136.408 18.9306 139.507 21.818 139.507 27.6281V28.1739C139.507 33.9839 136.566 37.3115 132.112 37.3115C129.172 37.2411 127.27 35.8854 126.355 33.6142ZM134.823 28.1739V27.7337C134.823 24.5294 133.08 22.7336 130.633 22.7336C128.133 22.7336 126.39 24.7407 126.39 27.7865V28.1739C126.39 31.431 128.08 33.3325 130.58 33.3325C133.256 33.3325 134.823 31.6599 134.823 28.1739ZM141.461 28.438V27.945C141.461 22.0821 145.211 18.8778 150.317 18.8778C155.528 18.8778 159.173 22.0821 159.173 27.945V28.438C159.173 34.1952 155.581 37.2939 150.317 37.2939C144.665 37.2411 141.461 34.2128 141.461 28.438ZM154.542 28.3852V27.945C154.542 24.6878 152.905 22.7336 150.299 22.7336C147.746 22.7336 146.056 24.5294 146.056 27.945V28.3852C146.056 31.5367 147.694 33.3325 150.299 33.3325C152.923 33.2797 154.542 31.5367 154.542 28.3852ZM165.141 27.7337L158.997 19.318H164.261L167.8 24.5822L171.392 19.318H176.603L170.37 27.6809L176.938 36.8185H171.779L167.765 31.0085L163.856 36.8185H158.469L165.141 27.7337Z" fill="#F06527"/>
<path d="M21.2982 15.1803L11.0866 21.6946L21.2982 28.2089L11.0866 34.7232L0.875 28.1737L11.0866 21.6594L0.875 15.1803L11.0866 8.66602L21.2982 15.1803ZM11.0338 36.8184L21.2454 30.3041L31.457 36.8184L21.2454 43.3327L11.0338 36.8184ZM21.2982 28.1737L31.5098 21.6594L21.2982 15.1803L31.457 8.66602L41.6686 15.1803L31.457 21.6946L41.6686 28.2089L31.457 34.7232L21.2982 28.1737Z" fill="#F06527"/>
</g>
<defs>
<clipPath id="clip0_8_341">
<rect width="176.583" height="52" fill="white" transform="translate(0.875)"/>
</clipPath>
</defs>
</svg>
