<svg width="124" height="52" viewBox="0 0 124 52" fill="none" xmlns="http://www.w3.org/2000/svg">
<path d="M53.1325 27.7878C53.1325 33.5546 48.6211 37.8041 43.0846 37.8041C37.548 37.8041 33.0366 33.5546 33.0366 27.7878C33.0366 21.9803 37.548 17.7715 43.0846 17.7715C48.6211 17.7715 53.1325 21.9803 53.1325 27.7878ZM48.734 27.7878C48.734 24.1841 46.1193 21.7184 43.0846 21.7184C40.0499 21.7184 37.4351 24.1841 37.4351 27.7878C37.4351 31.3554 40.0499 33.8572 43.0846 33.8572C46.1193 33.8572 48.734 31.3509 48.734 27.7878Z" fill="#F06527"/>
<path d="M74.8093 27.7878C74.8093 33.5546 70.2978 37.8041 64.7613 37.8041C59.2248 37.8041 54.7134 33.5546 54.7134 27.7878C54.7134 21.9848 59.2248 17.7715 64.7613 17.7715C70.2978 17.7715 74.8093 21.9803 74.8093 27.7878ZM70.4107 27.7878C70.4107 24.1841 67.796 21.7184 64.7613 21.7184C61.7266 21.7184 59.1119 24.1841 59.1119 27.7878C59.1119 31.3554 61.7266 33.8572 64.7613 33.8572C67.796 33.8572 70.4107 31.3509 70.4107 27.7878Z" fill="#F06527"/>
<path d="M95.5826 18.3766V36.359C95.5826 43.7561 91.2202 46.7773 86.063 46.7773C81.2084 46.7773 78.2866 43.5303 77.1847 40.875L81.0142 39.2808C81.6961 40.9111 83.367 42.8349 86.0585 42.8349C89.3596 42.8349 91.4053 40.7982 91.4053 36.9642V35.5236H91.2518C90.2673 36.7384 88.3706 37.7996 85.9772 37.7996C80.969 37.7996 76.3809 33.4372 76.3809 27.8239C76.3809 22.17 80.969 17.7715 85.9772 17.7715C88.3661 17.7715 90.2628 18.8327 91.2518 20.0114H91.4053V18.3811H95.5826V18.3766ZM91.717 27.8239C91.717 24.297 89.3642 21.7184 86.3701 21.7184C83.3354 21.7184 80.7929 24.297 80.7929 27.8239C80.7929 31.3147 83.3354 33.8572 86.3701 33.8572C89.3642 33.8572 91.717 31.3147 91.717 27.8239Z" fill="#F06527"/>
<path d="M102.469 7.83594V37.1895H98.1787V7.83594H102.469Z" fill="#F06527"/>
<path d="M119.187 31.085L122.601 33.3611C121.499 34.9913 118.844 37.8002 114.256 37.8002C108.566 37.8002 104.316 33.4017 104.316 27.7839C104.316 21.8274 108.602 17.7676 113.764 17.7676C118.962 17.7676 121.504 21.9042 122.335 24.1395L122.791 25.2776L109.401 30.8231C110.426 32.8327 112.021 33.8578 114.256 33.8578C116.496 33.8578 118.049 32.7559 119.187 31.085ZM108.679 27.4813L117.629 23.7647C117.137 22.5138 115.656 21.6422 113.913 21.6422C111.677 21.6422 108.566 23.6157 108.679 27.4813Z" fill="#F06527"/>
<path d="M16.7971 25.1816V20.9321H31.1171C31.2571 21.6727 31.3293 22.5488 31.3293 23.4971C31.3293 26.6854 30.4578 30.6278 27.6488 33.4367C24.9167 36.2817 21.4259 37.7991 16.8016 37.7991C8.23037 37.7991 1.02295 30.8174 1.02295 22.2462C1.02295 13.675 8.23037 6.69336 16.8016 6.69336C21.5433 6.69336 24.9212 8.55392 27.4592 10.979L24.4606 13.9775C22.6407 12.2705 20.175 10.9428 16.7971 10.9428C10.538 10.9428 5.64274 15.9871 5.64274 22.2462C5.64274 28.5053 10.538 33.5496 16.7971 33.5496C20.8569 33.5496 23.1691 31.9193 24.6503 30.4381C25.8515 29.2369 26.6418 27.5208 26.9534 25.177L16.7971 25.1816Z" fill="#F06527"/>
</svg>
