<svg width="196" height="52" viewBox="0 0 196 52" fill="none" xmlns="http://www.w3.org/2000/svg">
<g clip-path="url(#clip0_8_346)">
<path fill-rule="evenodd" clip-rule="evenodd" d="M59.2122 37.2444C58.4984 36.9723 58.031 36.3961 58.031 35.6278C58.031 34.6979 58.7993 33.9313 59.734 33.9313C60.0093 33.9313 60.2301 33.9857 60.4222 34.0673C61.6969 34.6551 63.0855 34.9546 64.4892 34.9444C67.3493 34.9444 68.6954 33.576 68.6954 30.9447V30.2324C67.4582 31.7129 66.1121 32.6172 63.8858 32.6172C60.4494 32.6172 57.3428 30.1236 57.3428 25.767V25.7141C57.3428 21.3303 60.5038 18.8654 63.8858 18.8654C66.1665 18.8654 67.5126 19.8258 68.6393 21.0582V21.0294C68.6393 19.9058 69.5741 18.9759 70.7296 18.9759C71.882 18.9759 72.8167 19.9058 72.8167 21.0566V30.5077C72.8167 33.1374 72.1861 35.0533 70.9489 36.2857C69.5741 37.6573 67.4582 38.2591 64.5996 38.2591C62.7548 38.2753 60.9247 37.9306 59.2122 37.2444ZM68.6954 25.7686V25.7141C68.6954 23.7135 67.1268 22.3162 65.0942 22.3162C63.0615 22.3162 61.5218 23.7135 61.5218 25.7141V25.7686C61.5218 27.7948 63.0615 29.1649 65.0942 29.1649C67.1268 29.1649 68.6954 27.7676 68.6954 25.7686ZM75.1823 21.0566C75.1823 19.9058 76.1171 18.9759 77.271 18.9759C78.4266 18.9759 79.3597 19.9058 79.3597 21.0566V21.7128C79.9647 20.2899 80.9539 18.9759 82.1927 18.9759C83.4843 18.9759 84.2254 19.8242 84.2254 21.0022C84.2254 22.0969 83.5115 22.7547 82.6584 22.9468C80.5425 23.4414 79.3613 25.0563 79.3613 28.0141V31.9034C79.3613 33.0542 78.4266 33.9857 77.271 33.9857C76.9972 33.9863 76.726 33.933 76.4728 33.8288C76.2197 33.7245 75.9895 33.5714 75.7955 33.3782C75.6016 33.1849 75.4476 32.9554 75.3423 32.7026C75.2371 32.4498 75.1828 32.1788 75.1823 31.905V21.0566ZM83.7308 29.6034V29.549C83.7308 26.3431 86.1764 24.8643 89.6688 24.8643C91.1525 24.8643 92.2248 25.1107 93.27 25.4661V25.2196C93.27 23.4958 92.1976 22.5355 90.1089 22.5355C89.1312 22.525 88.1575 22.6637 87.2216 22.9468C87.0284 23.0184 86.8242 23.0558 86.6182 23.0572C86.3923 23.0615 86.1678 23.0207 85.9579 22.9372C85.7479 22.8537 85.5567 22.7291 85.3955 22.5709C85.2342 22.4126 85.1062 22.2238 85.0188 22.0154C84.9313 21.8071 84.8863 21.5834 84.8864 21.3575C84.8864 20.618 85.3505 19.989 86.0132 19.7409C87.332 19.248 88.7613 18.9759 90.7123 18.9759C92.9931 18.9759 94.6432 19.5777 95.6868 20.618C96.7864 21.7128 97.2825 23.3309 97.2825 25.3028V31.985C97.2825 33.1086 96.375 33.9857 95.2482 33.9857C94.0382 33.9857 93.2412 33.1374 93.2412 32.2603V32.2315C92.2248 33.3551 90.8244 34.0945 88.7885 34.0945C86.0132 34.0945 83.7308 32.5068 83.7308 29.6034ZM93.3244 28.6431V27.9053C92.4843 27.5361 91.5755 27.349 90.6579 27.3563C88.8701 27.3563 87.7722 28.0685 87.7722 29.3842V29.4386C87.7722 30.5622 88.7069 31.22 90.0529 31.22C92.0056 31.22 93.3244 30.1508 93.3244 28.6431ZM99.5089 21.0566C99.5089 19.9058 100.444 18.9759 101.599 18.9759C102.753 18.9759 103.688 19.9058 103.688 21.0566V21.2214C104.648 19.989 105.914 18.8654 108.03 18.8654C109.954 18.8654 111.41 19.7137 112.18 21.1942C113.472 19.6881 115.013 18.8654 117.017 18.8654C120.124 18.8654 121.995 20.7285 121.995 24.2624V31.9034C121.995 33.0542 121.058 33.9857 119.904 33.9857C119.631 33.9863 119.359 33.933 119.106 33.8288C118.853 33.7246 118.623 33.5715 118.428 33.3783C118.234 33.1851 118.08 32.9555 117.975 32.7027C117.869 32.4499 117.815 32.1789 117.814 31.905V25.6309C117.814 23.659 116.934 22.6459 115.369 22.6459C113.802 22.6459 112.84 23.659 112.84 25.6309V31.905C112.84 33.0542 111.907 33.9857 110.751 33.9857C110.198 33.9865 109.668 33.7679 109.276 33.3777C108.884 32.9875 108.664 32.4578 108.662 31.905V25.6309C108.662 23.659 107.782 22.6459 106.217 22.6459C104.648 22.6459 103.688 23.659 103.688 25.6309V31.905C103.688 33.0542 102.753 33.9857 101.599 33.9857C101.325 33.9865 101.054 33.9334 100.8 33.8292C100.547 33.7251 100.317 33.572 100.123 33.3787C99.9285 33.1855 99.7743 32.9558 99.669 32.703C99.5637 32.4501 99.5093 32.1789 99.5089 31.905V21.0566ZM124.248 21.0566C124.248 19.9058 125.183 18.9759 126.337 18.9759C127.493 18.9759 128.427 19.9058 128.427 21.0566V21.2214C129.388 19.989 130.652 18.8654 132.77 18.8654C134.693 18.8654 136.15 19.7137 136.92 21.1942C138.211 19.6881 139.751 18.8654 141.757 18.8654C144.863 18.8654 146.733 20.7285 146.733 24.2624V31.9034C146.733 33.0542 145.798 33.9857 144.642 33.9857C144.09 33.9865 143.559 33.7679 143.167 33.3777C142.776 32.9875 142.555 32.4578 142.554 31.905V25.6309C142.554 23.659 141.673 22.6459 140.108 22.6459C138.54 22.6459 137.579 23.659 137.579 25.6309V31.905C137.579 33.0542 136.644 33.9857 135.49 33.9857C135.217 33.9863 134.945 33.933 134.692 33.8288C134.439 33.7245 134.209 33.5714 134.015 33.3782C133.821 33.1849 133.667 32.9554 133.562 32.7026C133.457 32.4498 133.402 32.1788 133.402 31.905V25.6309C133.402 23.659 132.522 22.6459 130.955 22.6459C129.388 22.6459 128.426 23.659 128.426 25.6309V31.905C128.426 33.0542 127.493 33.9857 126.337 33.9857C126.063 33.9863 125.792 33.933 125.539 33.8288C125.286 33.7245 125.056 33.5714 124.862 33.3782C124.668 33.1849 124.514 32.9554 124.408 32.7026C124.303 32.4498 124.249 32.1788 124.248 31.905V21.0566ZM148.108 29.6034V29.549C148.108 26.3431 150.555 24.8643 154.046 24.8643C155.271 24.8532 156.49 25.0569 157.645 25.4661V25.2196C157.645 23.4958 156.573 22.5355 154.484 22.5355C153.33 22.5355 152.395 22.7003 151.598 22.9468C151.405 23.0184 151.201 23.0558 150.995 23.0572C150.769 23.0619 150.544 23.0214 150.334 22.9381C150.124 22.8547 149.932 22.7303 149.771 22.5719C149.609 22.4136 149.481 22.2246 149.394 22.0161C149.306 21.8075 149.261 21.5836 149.262 21.3575C149.262 20.618 149.73 19.989 150.388 19.7409C151.709 19.248 153.138 18.9759 155.089 18.9759C157.371 18.9759 159.02 19.5777 160.064 20.618C161.163 21.7128 161.658 23.3309 161.658 25.3028V31.985C161.658 32.2505 161.605 32.5133 161.502 32.7581C161.4 33.003 161.25 33.225 161.06 33.4112C160.871 33.5974 160.647 33.7441 160.4 33.8427C160.154 33.9413 159.89 33.9899 159.625 33.9857C158.415 33.9857 157.618 33.1374 157.618 32.2603V32.2315C156.602 33.3551 155.198 34.0945 153.165 34.0945C150.388 34.0945 148.108 32.5068 148.108 29.6034ZM157.701 28.6431V27.9053C156.861 27.5362 155.952 27.3491 155.035 27.3563C153.247 27.3563 152.149 28.0685 152.149 29.3842V29.4386C152.149 30.5622 153.082 31.22 154.43 31.22C156.381 31.22 157.701 30.1508 157.701 28.6431ZM163.886 21.0566C163.886 19.9058 164.82 18.9759 165.974 18.9759C167.13 18.9759 168.063 19.9058 168.063 21.0566V21.7128C168.668 20.2899 169.657 18.9759 170.896 18.9759C172.186 18.9759 172.929 19.8242 172.929 21.0022C172.929 22.0969 172.213 22.7547 171.362 22.9468C169.246 23.4414 168.063 25.0563 168.063 28.0141V31.9034C168.063 33.0542 167.13 33.9857 165.974 33.9857C165.421 33.9865 164.891 33.7679 164.499 33.3777C164.108 32.9875 163.887 32.4578 163.886 31.905V21.0566ZM174.193 15.7428C174.193 14.5904 175.128 13.6621 176.282 13.6621C177.437 13.6621 178.372 14.5904 178.372 15.7428V31.9034C178.372 33.0542 177.437 33.9857 176.282 33.9857C175.729 33.9865 175.198 33.7679 174.807 33.3777C174.415 32.9875 174.194 32.4578 174.193 31.905V15.7412V15.7428ZM181.698 37.9022C181.093 37.6845 180.378 37.19 180.378 36.1784C180.373 35.9581 180.412 35.739 180.493 35.5339C180.573 35.3289 180.694 35.1418 180.847 34.9837C181.001 34.8256 181.184 34.6995 181.387 34.6128C181.589 34.5261 181.807 34.4805 182.028 34.4787C182.357 34.4787 182.549 34.5331 182.714 34.5891C183.071 34.6979 183.292 34.754 183.595 34.754C184.336 34.754 184.694 34.6163 185.078 33.8769L185.216 33.5471L180.187 21.9337C180.061 21.6278 179.987 21.3034 179.966 20.9734C179.966 19.797 180.874 18.9759 182.028 18.9759C183.071 18.9759 183.676 19.5505 184.033 20.5364L187.223 29.0833L190.301 20.5636C190.631 19.6881 191.234 18.9759 192.308 18.9759C193.379 18.9759 194.285 19.797 194.285 20.8933C194.285 21.2214 194.176 21.6872 194.094 21.8793L188.953 34.1778C187.716 37.1628 186.48 38.2863 183.979 38.2863C183.044 38.2863 182.385 38.1503 181.698 37.9022Z" fill="#F06527"/>
<path fill-rule="evenodd" clip-rule="evenodd" d="M45.7819 26.4629C45.7819 39.0271 35.5608 49.2129 22.9534 49.2129C10.346 49.2129 0.125 39.0271 0.125 26.4629C0.125 13.8987 10.346 3.71289 22.9534 3.71289C35.5608 3.71289 45.7819 13.8987 45.7819 26.4629Z" fill="#F06527"/>
<path fill-rule="evenodd" clip-rule="evenodd" d="M25.937 31.3758C26.0715 32.12 26.7741 32.6306 27.5344 32.6306H29.9256L31.3116 32.4385C29.0933 35.6812 25.2424 37.1729 21.0314 36.5151C17.6031 35.9789 14.6581 33.6662 13.4145 30.4379C10.5943 23.109 15.9641 16.1131 22.9632 16.1131C26.6109 16.1131 29.8087 18.2402 31.6429 20.8091C32.1295 21.5085 33.0962 21.7646 33.7989 21.2796C34.118 21.0634 34.3432 20.7341 34.4288 20.3582C34.5144 19.9823 34.454 19.588 34.2598 19.2549C32.9598 17.2305 31.139 15.5931 28.9884 14.5145C26.8378 13.436 24.4365 12.956 22.0365 13.1249C15.3623 13.5714 9.96051 19.0149 9.57638 25.6699C9.13143 33.4165 15.2951 39.7386 22.9632 39.7386C24.8752 39.7465 26.7664 39.3418 28.5077 38.5521C30.2489 37.7623 31.7993 36.6062 33.053 35.1627L32.7617 36.7856V38.2517C32.7617 39.0071 33.2739 39.7082 34.0213 39.8426C34.2445 39.8847 34.4742 39.8771 34.6941 39.8204C34.914 39.7637 35.1187 39.6594 35.2937 39.5147C35.4688 39.3701 35.6099 39.1887 35.707 38.9834C35.8041 38.7781 35.8548 38.554 35.8556 38.3269V29.5464H27.4576C27.2304 29.546 27.0059 29.5958 26.8002 29.6921C26.5944 29.7884 26.4125 29.9289 26.2672 30.1036C26.122 30.2784 26.0172 30.483 25.9601 30.7028C25.903 30.9227 25.8951 31.1525 25.937 31.3758Z" fill="white"/>
</g>
<defs>
<clipPath id="clip0_8_346">
<rect width="195" height="52" fill="white" transform="translate(0.125)"/>
</clipPath>
</defs>
</svg>
