<svg width="140" height="60" viewBox="0 0 140 60" fill="none" xmlns="http://www.w3.org/2000/svg">
<path fill-rule="evenodd" clip-rule="evenodd" d="M17.7326 2.31815L3.73902 20.7064C-6.33747 33.9474 5.13685 51.2034 24.0179 51.2034H108.304C107.818 54.4465 109.413 58.2083 110.499 60C113.053 57.7294 116.505 58.9392 117.911 59.828C116.623 58.5715 114.664 55.3021 115.638 51.2034H136.648C138.8 51.2034 140.25 49.38 139.404 47.74L138.084 45.1813C137.612 44.2667 136.528 43.6735 135.328 43.6735H117.261C117.012 41.4275 116.102 39.5287 115.393 38.2808L111.044 27.804C110.983 27.6397 110.867 27.4943 110.698 27.3679C110.529 27.2414 110.298 27.1782 110.006 27.1782H103.59C103.298 27.1782 103.067 27.2414 102.898 27.3679C102.729 27.4943 102.613 27.6397 102.552 27.804L97.521 39.9222L97.4979 40.036C97.4979 40.1498 97.5441 40.2509 97.6364 40.3394C97.7441 40.4153 97.8672 40.4532 98.0056 40.4532H102.367C102.859 40.4532 103.206 40.2383 103.406 39.8084L103.983 38.4809H108.923C110.243 39.9487 110.973 41.7011 110.916 43.6735H20.7743C11.8607 43.6735 6.06384 35.8943 10.0512 29.2835L10.7743 28.0846C12.8055 24.7169 16.9567 22.5898 21.4974 22.5898H133.996C138.699 22.5898 141.571 18.303 139.085 14.9916L128.888 1.40657C128.232 0.531801 127.077 0 125.835 0H70.9605H22.8023C20.7447 0 18.8308 0.875136 17.7326 2.31815ZM35.6036 36.5655H31.4267V31.0659H35.6036C35.7728 31.0659 35.919 31.0153 36.042 30.9142C36.1651 30.813 36.2266 30.6929 36.2266 30.5539V27.6903C36.2266 27.5512 36.1651 27.4311 36.042 27.3299C35.919 27.2288 35.7728 27.1782 35.6036 27.1782H20.9728C20.8036 27.1782 20.6575 27.2288 20.5344 27.3299C20.4113 27.4311 20.3498 27.5512 20.3498 27.6903V30.5539C20.3498 30.6929 20.4113 30.813 20.5344 30.9142C20.6575 31.0153 20.8036 31.0659 20.9728 31.0659H25.1959V36.5655H20.9728C20.8036 36.5655 20.6575 36.6161 20.5344 36.7172C20.4113 36.8184 20.3498 36.9385 20.3498 37.0776V39.9412C20.3498 40.0802 20.4113 40.2003 20.5344 40.3015C20.6575 40.4026 20.8036 40.4532 20.9728 40.4532H35.6036C35.7728 40.4532 35.919 40.4026 36.042 40.3015C36.1651 40.2003 36.2266 40.0802 36.2266 39.9412V37.0776C36.2266 36.9385 36.1651 36.8184 36.042 36.7172C35.919 36.6161 35.7728 36.5655 35.6036 36.5655ZM55.4235 36.5655C55.5927 36.5655 55.7388 36.6161 55.8619 36.7172C55.985 36.8184 56.0465 36.9385 56.0465 37.0776V39.9412C56.0465 40.0802 55.985 40.2003 55.8619 40.3015C55.7388 40.4026 55.5927 40.4532 55.4235 40.4532H41.9466C41.7773 40.4532 41.6312 40.4026 41.5081 40.3015C41.385 40.2003 41.3235 40.0802 41.3235 39.9412V27.6903C41.3235 27.5512 41.385 27.4311 41.5081 27.3299C41.6312 27.2288 41.7773 27.1782 41.9466 27.1782H46.9312C47.1004 27.1782 47.2465 27.2288 47.3696 27.3299C47.4927 27.4311 47.5542 27.5512 47.5542 27.6903V36.5655H55.4235ZM71.5235 27.1782C71.0927 27.1782 70.7619 27.3489 70.5312 27.6903L67.5081 32.2417L64.485 27.6903C64.2542 27.3489 63.9235 27.1782 63.4927 27.1782H59.2696C59.1004 27.1782 58.9542 27.2288 58.8311 27.3299C58.7081 27.4311 58.6465 27.5512 58.6465 27.6903V39.9412C58.6465 40.0802 58.7081 40.2003 58.8311 40.3015C58.9542 40.4026 59.1004 40.4532 59.2696 40.4532H63.4465C63.6158 40.4532 63.7619 40.4026 63.885 40.3015C64.0081 40.2003 64.0696 40.0802 64.0696 39.9412V34.0622L65.7542 36.7931C65.8004 36.8816 65.9081 36.9827 66.0773 37.0965C66.2465 37.2103 66.4619 37.2672 66.7235 37.2672H68.2927C68.5542 37.2672 68.7696 37.2103 68.9389 37.0965C69.1081 36.9827 69.2158 36.8816 69.2619 36.7931L70.9465 34.0622V39.9412C70.9465 40.0802 71.0081 40.2003 71.1312 40.3015C71.2542 40.4026 71.4004 40.4532 71.5696 40.4532H75.7465C75.9158 40.4532 76.0619 40.4026 76.185 40.3015C76.3081 40.2003 76.3696 40.0802 76.3696 39.9412V27.6903C76.3696 27.5512 76.3081 27.4311 76.185 27.3299C76.0619 27.2288 75.9158 27.1782 75.7465 27.1782H71.5235ZM89.4728 27.1782C90.919 27.1782 92.1805 27.3805 93.2575 27.7851C94.3344 28.1896 95.1574 28.7396 95.7267 29.435C96.2959 30.1303 96.5805 30.9079 96.5805 31.7676C96.5805 33.1836 96.0421 34.2961 94.9651 35.1053C93.8882 35.9018 92.0574 36.3 89.4728 36.3H86.4267V39.9412C86.4267 40.0802 86.3652 40.2003 86.2421 40.3015C86.119 40.4026 85.9728 40.4532 85.8036 40.4532H80.8421C80.6729 40.4532 80.5267 40.4026 80.4036 40.3015C80.2805 40.2003 80.219 40.0802 80.219 39.9412V27.6903C80.219 27.5512 80.2805 27.4311 80.4036 27.3299C80.5267 27.2288 80.6729 27.1782 80.8421 27.1782H89.4728ZM89.3805 32.7916C89.7498 32.7916 90.0421 32.7031 90.2575 32.5261C90.4728 32.3365 90.5805 32.09 90.5805 31.7865C90.5805 31.4705 90.4728 31.2113 90.2575 31.009C90.0421 30.8067 89.7498 30.7056 89.3805 30.7056H86.4498V32.7916H89.3805ZM105.159 34.7829L106.798 30.8383L108.436 34.7829H105.159ZM135.118 27.311C135.026 27.2225 134.911 27.1782 134.772 27.1782H129.949C129.534 27.1782 129.211 27.3363 128.98 27.6523L126.303 31.3693L123.695 27.6144C123.495 27.3236 123.18 27.1782 122.749 27.1782H117.88C117.741 27.1782 117.618 27.2225 117.511 27.311C117.418 27.3868 117.372 27.4817 117.372 27.5954C117.372 27.6587 117.395 27.7282 117.441 27.804L123.234 35.7121V39.9412C123.234 40.0802 123.295 40.2003 123.418 40.3015C123.541 40.4026 123.687 40.4532 123.857 40.4532H128.772C128.941 40.4532 129.087 40.4026 129.211 40.3015C129.334 40.2003 129.395 40.0802 129.395 39.9412V35.7121L135.211 27.804C135.257 27.7282 135.28 27.6523 135.28 27.5765C135.28 27.4753 135.226 27.3868 135.118 27.311ZM106.12 17.0941C115.238 16.805 125.116 16.2327 124.172 13.2426C123.154 10.0189 120.304 7.37105 117.989 5.75427C117.243 5.23357 117.404 4.0347 118.303 3.89946C120.333 3.59422 122.772 3.53353 124.172 4.43254C126.766 6.09931 133.974 14.1951 132.82 17.5286C132.138 19.5019 117.996 19.1633 106.093 18.4035C104.877 18.3259 104.902 17.1327 106.12 17.0941Z" fill="#FFF0DC"/>
</svg>
