<svg width="145" height="45" viewBox="0 0 145 45" fill="none" xmlns="http://www.w3.org/2000/svg">
<rect width="145" height="45" rx="22.5" fill="#FFF0DC"/>
<path d="M27.3432 28.224C27.0552 28.224 26.7299 28.2133 26.3672 28.192C26.0152 28.1813 25.6685 28.16 25.3272 28.128C24.9859 28.1067 24.6819 28.08 24.4152 28.048C24.1592 28.0267 23.9832 28.0107 23.8872 28V16.816C23.9832 16.8053 24.1592 16.7893 24.4152 16.768C24.6819 16.7467 24.9965 16.7253 25.3592 16.704C25.7219 16.672 26.0899 16.6507 26.4632 16.64C26.8472 16.6187 27.1992 16.608 27.5192 16.608C28.4045 16.608 29.1245 16.7573 29.6792 17.056C30.2445 17.3547 30.6765 17.7707 30.9752 18.304C31.2739 18.8267 31.4819 19.4293 31.5992 20.112C31.7165 20.7947 31.7752 21.5147 31.7752 22.272C31.7752 23.7547 31.5832 24.9333 31.1992 25.808C30.8259 26.672 30.3032 27.2907 29.6312 27.664C28.9699 28.0373 28.2072 28.224 27.3432 28.224ZM27.3112 26.608C27.7912 26.608 28.1539 26.5707 28.3992 26.496C28.6552 26.4213 28.8419 26.3307 28.9592 26.224C29.0979 26.0853 29.2259 25.872 29.3432 25.584C29.4712 25.296 29.5725 24.88 29.6472 24.336C29.7325 23.792 29.7752 23.0773 29.7752 22.192C29.7752 21.2853 29.7112 20.5013 29.5832 19.84C29.4659 19.1787 29.2685 18.736 28.9912 18.512C28.9059 18.4373 28.7565 18.3733 28.5432 18.32C28.3299 18.256 27.9992 18.224 27.5512 18.224C27.0819 18.224 26.6819 18.24 26.3512 18.272C26.0205 18.304 25.7272 18.336 25.4712 18.368L25.7592 17.488V27.312L25.4552 26.432C25.7219 26.464 25.9885 26.5013 26.2552 26.544C26.5325 26.5867 26.8845 26.608 27.3112 26.608ZM37.5254 28.208C36.5654 28.208 35.8081 28.0107 35.2534 27.616C34.7094 27.2213 34.3201 26.6613 34.0854 25.936C33.8508 25.2 33.7334 24.3253 33.7334 23.312C33.7334 22.3093 33.8508 21.4453 34.0854 20.72C34.3201 19.9947 34.7094 19.4347 35.2534 19.04C35.8081 18.6347 36.5654 18.432 37.5254 18.432C38.4748 18.432 39.2214 18.6347 39.7654 19.04C40.3201 19.4347 40.7094 19.9947 40.9334 20.72C41.1681 21.4453 41.2854 22.3147 41.2854 23.328C41.2854 24.3307 41.1681 25.2 40.9334 25.936C40.7094 26.6613 40.3201 27.2213 39.7654 27.616C39.2214 28.0107 38.4748 28.208 37.5254 28.208ZM37.5254 26.72C37.8881 26.72 38.1868 26.6773 38.4214 26.592C38.6668 26.496 38.8588 26.3307 38.9974 26.096C39.1468 25.8507 39.2481 25.504 39.3014 25.056C39.3654 24.608 39.3974 24.0267 39.3974 23.312C39.3974 22.608 39.3654 22.032 39.3014 21.584C39.2481 21.136 39.1468 20.7947 38.9974 20.56C38.8588 20.3147 38.6668 20.1493 38.4214 20.064C38.1761 19.968 37.8774 19.92 37.5254 19.92C37.1628 19.92 36.8588 19.968 36.6134 20.064C36.3681 20.1493 36.1708 20.3147 36.0214 20.56C35.8828 20.7947 35.7761 21.136 35.7014 21.584C35.6374 22.032 35.6054 22.608 35.6054 23.312C35.6054 24.0267 35.6374 24.608 35.7014 25.056C35.7761 25.504 35.8828 25.8507 36.0214 26.096C36.1708 26.3307 36.3681 26.496 36.6134 26.592C36.8588 26.6773 37.1628 26.72 37.5254 26.72ZM44.4502 28L42.5942 18.64H44.4662L45.6822 26.608H45.7622L47.1542 19.904H49.5702L50.9622 26.608H51.0422L52.2422 18.64H54.1142L52.2742 28H49.7942L48.4022 21.296H48.3062L46.9302 28H44.4502ZM55.8857 28V18.64H57.0857L57.3097 19.568H57.3897C57.539 19.4827 57.731 19.376 57.9657 19.248C58.2004 19.12 58.467 18.992 58.7657 18.864C59.0644 18.736 59.3844 18.6347 59.7257 18.56C60.067 18.4747 60.4137 18.432 60.7657 18.432C61.3844 18.432 61.8537 18.5813 62.1737 18.88C62.5044 19.1787 62.7284 19.584 62.8457 20.096C62.963 20.608 63.0217 21.184 63.0217 21.824V28H61.1657V22.288C61.1657 21.744 61.155 21.3333 61.1337 21.056C61.1124 20.768 61.0484 20.5493 60.9417 20.4C60.867 20.2827 60.7604 20.208 60.6217 20.176C60.483 20.1333 60.3337 20.112 60.1737 20.112C59.8644 20.112 59.5444 20.16 59.2137 20.256C58.8937 20.352 58.6004 20.4587 58.3337 20.576C58.067 20.6933 57.8697 20.7947 57.7417 20.88V28H55.8857ZM65.7454 28V15.888H67.5854V28H65.7454ZM73.8067 28.208C72.8467 28.208 72.0894 28.0107 71.5347 27.616C70.9907 27.2213 70.6014 26.6613 70.3667 25.936C70.132 25.2 70.0147 24.3253 70.0147 23.312C70.0147 22.3093 70.132 21.4453 70.3667 20.72C70.6014 19.9947 70.9907 19.4347 71.5347 19.04C72.0894 18.6347 72.8467 18.432 73.8067 18.432C74.756 18.432 75.5027 18.6347 76.0467 19.04C76.6014 19.4347 76.9907 19.9947 77.2147 20.72C77.4494 21.4453 77.5667 22.3147 77.5667 23.328C77.5667 24.3307 77.4494 25.2 77.2147 25.936C76.9907 26.6613 76.6014 27.2213 76.0467 27.616C75.5027 28.0107 74.756 28.208 73.8067 28.208ZM73.8067 26.72C74.1694 26.72 74.468 26.6773 74.7027 26.592C74.948 26.496 75.14 26.3307 75.2787 26.096C75.428 25.8507 75.5294 25.504 75.5827 25.056C75.6467 24.608 75.6787 24.0267 75.6787 23.312C75.6787 22.608 75.6467 22.032 75.5827 21.584C75.5294 21.136 75.428 20.7947 75.2787 20.56C75.14 20.3147 74.948 20.1493 74.7027 20.064C74.4574 19.968 74.1587 19.92 73.8067 19.92C73.444 19.92 73.14 19.968 72.8947 20.064C72.6494 20.1493 72.452 20.3147 72.3027 20.56C72.164 20.7947 72.0574 21.136 71.9827 21.584C71.9187 22.032 71.8867 22.608 71.8867 23.312C71.8867 24.0267 71.9187 24.608 71.9827 25.056C72.0574 25.504 72.164 25.8507 72.3027 26.096C72.452 26.3307 72.6494 26.496 72.8947 26.592C73.14 26.6773 73.444 26.72 73.8067 26.72ZM81.9794 28.208C81.4781 28.208 81.0301 28.0907 80.6354 27.856C80.2408 27.6213 79.9314 27.28 79.7074 26.832C79.4834 26.384 79.3714 25.84 79.3714 25.2C79.3714 24.432 79.5314 23.8293 79.8514 23.392C80.1821 22.9547 80.6408 22.6453 81.2274 22.464C81.8248 22.272 82.5234 22.176 83.3234 22.176H84.7954C84.7954 21.6747 84.7741 21.2747 84.7314 20.976C84.6994 20.6667 84.6354 20.4373 84.5394 20.288C84.4541 20.1813 84.3314 20.1013 84.1714 20.048C84.0221 19.9947 83.8034 19.968 83.5154 19.968C83.1208 19.968 82.7208 20.0053 82.3154 20.08C81.9101 20.144 81.5368 20.2293 81.1954 20.336C80.8648 20.432 80.5928 20.5173 80.3794 20.592C80.1768 20.656 80.0754 20.688 80.0754 20.688L79.5954 19.312C79.5954 19.312 79.6968 19.2693 79.8994 19.184C80.1128 19.088 80.3954 18.9867 80.7474 18.88C81.1101 18.7627 81.5154 18.6613 81.9634 18.576C82.4114 18.48 82.8861 18.432 83.3874 18.432C84.1981 18.432 84.8381 18.576 85.3074 18.864C85.7874 19.1413 86.1288 19.5413 86.3314 20.064C86.5341 20.576 86.6354 21.184 86.6354 21.888V28H85.4514L85.2114 26.992H85.1154C85.0514 27.0347 84.9234 27.1253 84.7314 27.264C84.5394 27.392 84.2994 27.5307 84.0114 27.68C83.7341 27.8187 83.4194 27.9413 83.0674 28.048C82.7261 28.1547 82.3634 28.208 81.9794 28.208ZM82.4274 26.656C82.7688 26.656 83.1048 26.6027 83.4354 26.496C83.7768 26.3893 84.0701 26.2773 84.3154 26.16C84.5608 26.032 84.7208 25.9413 84.7954 25.888V23.68C84.7208 23.6693 84.5448 23.6533 84.2674 23.632C84.0008 23.6 83.6541 23.584 83.2274 23.584C82.3634 23.584 81.8301 23.6747 81.6274 23.856C81.5208 23.952 81.4354 24.112 81.3714 24.336C81.3074 24.5493 81.2754 24.8213 81.2754 25.152C81.2754 25.6747 81.3608 26.0587 81.5314 26.304C81.7128 26.5387 82.0114 26.656 82.4274 26.656ZM92.0558 28.208C91.4691 28.208 90.9411 28.0427 90.4718 27.712C90.0131 27.3707 89.6451 26.848 89.3678 26.144C89.1011 25.44 88.9678 24.5387 88.9678 23.44C88.9678 22.416 89.0691 21.5787 89.2718 20.928C89.4851 20.2773 89.7625 19.7707 90.1038 19.408C90.4558 19.0453 90.8345 18.7947 91.2398 18.656C91.6558 18.5067 92.0771 18.432 92.5038 18.432C92.8238 18.432 93.1171 18.4533 93.3838 18.496C93.6611 18.5387 93.8958 18.5867 94.0878 18.64C94.2798 18.6827 94.4078 18.72 94.4718 18.752V15.888H96.3118V28H95.1118L94.9038 27.056H94.8078C94.6371 27.184 94.4185 27.3387 94.1518 27.52C93.8851 27.7013 93.5758 27.8613 93.2238 28C92.8718 28.1387 92.4825 28.208 92.0558 28.208ZM92.2958 26.656C92.4878 26.656 92.6958 26.6293 92.9198 26.576C93.1438 26.512 93.3625 26.4373 93.5758 26.352C93.7891 26.2667 93.9758 26.1867 94.1358 26.112C94.2958 26.0267 94.4078 25.9627 94.4718 25.92V20.384C94.3971 20.352 94.2585 20.3093 94.0558 20.256C93.8531 20.192 93.6131 20.1333 93.3358 20.08C93.0585 20.0267 92.7651 20 92.4558 20C91.9438 20 91.5918 20.112 91.3998 20.336C91.3145 20.432 91.2291 20.5973 91.1438 20.832C91.0691 21.056 91.0051 21.3813 90.9518 21.808C90.8985 22.2347 90.8718 22.8 90.8718 23.504C90.8718 24.2933 90.9038 24.8907 90.9678 25.296C91.0425 25.7013 91.1278 25.984 91.2238 26.144C91.3305 26.304 91.4105 26.4107 91.4638 26.464C91.5491 26.5387 91.6665 26.592 91.8158 26.624C91.9651 26.6453 92.1251 26.656 92.2958 26.656Z" fill="#F06527"/>
<path d="M116.836 16.4346C116.27 16.4346 115.737 16.5225 115.239 16.6982C114.741 16.8643 114.292 17.0352 113.892 17.2109C113.491 17.3867 113.14 17.4746 112.837 17.4746C112.524 17.4746 112.173 17.3916 111.782 17.2256C111.401 17.0596 110.991 16.8984 110.552 16.7422C110.112 16.5762 109.644 16.4932 109.146 16.4932C108.208 16.4932 107.3 16.752 106.421 17.2695C105.552 17.7773 104.839 18.5342 104.282 19.54C103.726 20.5361 103.447 21.7715 103.447 23.2461C103.447 24.623 103.677 25.9902 104.136 27.3477C104.604 28.6953 105.166 29.8379 105.82 30.7754C106.387 31.5664 106.938 32.2451 107.476 32.8115C108.013 33.3779 108.638 33.6611 109.351 33.6611C109.819 33.6611 110.225 33.583 110.566 33.4268C110.918 33.2705 111.284 33.1143 111.665 32.958C112.056 32.8018 112.539 32.7236 113.115 32.7236C113.711 32.7236 114.185 32.8018 114.536 32.958C114.888 33.1045 115.229 33.2559 115.562 33.4121C115.894 33.5586 116.318 33.6318 116.836 33.6318C117.607 33.6318 118.267 33.3389 118.813 32.7529C119.37 32.167 119.888 31.5273 120.366 30.834C120.913 30.0332 121.304 29.3057 121.538 28.6514C121.782 27.9971 121.909 27.6504 121.919 27.6113C121.899 27.6016 121.733 27.5137 121.421 27.3477C121.118 27.1816 120.767 26.9229 120.366 26.5713C119.976 26.21 119.629 25.7363 119.326 25.1504C119.033 24.5645 118.887 23.8516 118.887 23.0117C118.887 22.2793 119.004 21.6494 119.238 21.1221C119.473 20.585 119.746 20.1455 120.059 19.8037C120.371 19.4521 120.654 19.1885 120.908 19.0127C121.162 18.8271 121.304 18.7197 121.333 18.6904C120.825 17.958 120.259 17.4355 119.634 17.123C119.019 16.8008 118.452 16.6055 117.935 16.5371C117.417 16.4688 117.051 16.4346 116.836 16.4346ZM116.03 14.5742C116.382 14.1445 116.67 13.6562 116.895 13.1094C117.119 12.5527 117.231 11.9814 117.231 11.3955C117.231 11.2197 117.217 11.0684 117.188 10.9414C116.621 10.9609 116.025 11.1318 115.4 11.4541C114.775 11.7764 114.258 12.1816 113.848 12.6699C113.525 13.0313 113.237 13.4902 112.983 14.0469C112.729 14.5937 112.603 15.1602 112.603 15.7461C112.603 15.834 112.607 15.917 112.617 15.9951C112.627 16.0732 112.637 16.127 112.646 16.1562C112.744 16.1758 112.847 16.1855 112.954 16.1855C113.472 16.1855 114.019 16.0342 114.595 15.7314C115.171 15.4189 115.649 15.0332 116.03 14.5742Z" fill="#F06527"/>
</svg>
