<svg width="153" height="52" viewBox="0 0 153 52" fill="none" xmlns="http://www.w3.org/2000/svg">
<g clip-path="url(#clip0_8_344)">
<path d="M23.287 3.33594C10.7226 3.33594 0.536621 13.5216 0.536621 26.0861C0.536621 38.6511 10.7226 48.8359 23.287 48.8359C35.8528 48.8359 46.0377 38.6511 46.0377 26.0861C46.0377 13.5225 35.8528 3.33702 23.2868 3.33702L23.287 3.33594ZM33.7202 36.1482C33.3127 36.8165 32.438 37.0284 31.7696 36.6182C26.4281 33.3554 19.7037 32.6165 11.7846 34.4258C11.0214 34.5996 10.2608 34.1215 10.0869 33.3581C9.91221 32.5947 10.3884 31.8341 11.1535 31.6602C19.8197 29.6803 27.2534 30.5328 33.2502 34.1976C33.9186 34.6078 34.1305 35.4799 33.7202 36.1482ZM36.5048 29.9536C35.9914 30.7881 34.8993 31.0516 34.0653 30.5382C27.95 26.7794 18.6282 25.6908 11.395 27.8864C10.4569 28.1698 9.46613 27.6411 9.18142 26.7047C8.89888 25.7666 9.42782 24.7777 10.3643 24.4925C18.6265 21.9855 28.8981 23.1999 35.9208 27.5153C36.7548 28.0288 37.0183 29.1209 36.5048 29.9538V29.9536ZM36.7439 23.503C29.4116 19.1479 17.3141 18.7475 10.3135 20.8722C9.18929 21.2131 8.00047 20.5785 7.65979 19.4544C7.31912 18.3296 7.9532 17.1416 9.07818 16.7999C17.1144 14.3603 30.4738 14.8316 38.9156 19.8431C39.929 20.4432 40.2604 21.7491 39.66 22.7589C39.0623 23.7701 37.7529 24.1034 36.745 23.503H36.7439ZM62.433 24.3376C58.5046 23.4009 57.8064 22.7435 57.8064 21.362C57.8064 20.0569 59.0344 19.1786 60.8627 19.1786C62.634 19.1786 64.389 19.8456 66.2309 21.2186C66.2853 21.2601 66.3559 21.2767 66.4238 21.2658C66.4944 21.2555 66.5542 21.2178 66.595 21.161L68.5129 18.4573C68.5917 18.3459 68.57 18.1924 68.464 18.1074C66.2717 16.3489 63.8049 15.494 60.9198 15.494C56.679 15.494 53.7151 18.0392 53.7151 21.681C53.7151 25.5862 56.2715 26.969 60.6889 28.0364C64.446 28.9022 65.0818 29.6276 65.0818 30.924C65.0818 32.3611 63.7995 33.2549 61.7348 33.2549C59.4419 33.2549 57.5701 32.4806 55.4782 30.6713C55.4266 30.6251 55.356 30.6061 55.2908 30.6088C55.2202 30.6143 55.1577 30.6469 55.1142 30.6985L52.9626 33.2576C52.8729 33.3663 52.8838 33.5238 52.987 33.6162C55.4212 35.7896 58.415 36.936 61.6479 36.936C66.2173 36.936 69.1704 34.4394 69.1704 30.5735C69.1785 27.3116 67.2252 25.505 62.4411 24.3411L62.433 24.3376ZM79.5101 20.4636C77.5297 20.4636 75.9051 21.2438 74.563 22.8426V21.0431C74.563 20.901 74.4489 20.7853 74.3077 20.7853H70.7895C70.6483 20.7853 70.5342 20.901 70.5342 21.0431V41.0382C70.5342 41.1795 70.6483 41.2963 70.7895 41.2963H74.3077C74.4489 41.2963 74.563 41.1795 74.563 41.0382V34.7273C75.9051 36.2297 77.5297 36.9659 79.5101 36.9659C83.1913 36.9659 86.9186 34.1324 86.9186 28.7156C86.924 23.2977 83.1967 20.4633 79.5128 20.4633L79.5101 20.4636ZM82.8272 28.7156C82.8272 31.4727 81.1293 33.3989 78.6951 33.3989C76.2908 33.3989 74.4761 31.3858 74.4761 28.7156C74.4761 26.045 76.2908 24.0325 78.6951 24.0325C81.0885 24.0323 82.8272 26.0013 82.8272 28.7153V28.7156ZM96.4677 20.4636C91.7271 20.4636 88.0134 24.1138 88.0134 28.7745C88.0134 33.3853 91.7027 36.9958 96.4107 36.9958C101.168 36.9958 104.892 33.3581 104.892 28.7156C104.892 24.0888 101.192 20.4641 96.4677 20.4641V20.4636ZM96.4677 33.426C93.9466 33.426 92.045 31.3994 92.045 28.7142C92.045 26.0168 93.8814 24.0594 96.4107 24.0594C98.9481 24.0594 100.861 26.0853 100.861 28.7732C100.861 31.47 99.0133 33.426 96.4677 33.426ZM115.015 20.7853H111.143V16.8281C111.143 16.6863 111.029 16.5706 110.888 16.5706H107.37C107.229 16.5706 107.112 16.6863 107.112 16.8281V20.7853H105.422C105.281 20.7853 105.167 20.901 105.167 21.0431V24.0659C105.167 24.2078 105.281 24.3238 105.422 24.3238H107.112V32.1465C107.112 35.306 108.685 36.9088 111.79 36.9088C113.05 36.9088 114.096 36.648 115.083 36.0884C115.164 36.0449 115.213 35.958 115.213 35.8656V32.9859C115.213 32.899 115.167 32.8148 115.091 32.7686C115.015 32.7197 114.92 32.717 114.841 32.7577C114.164 33.0973 113.51 33.2549 112.776 33.2549C111.649 33.2549 111.143 32.7414 111.143 31.595V24.3251H115.015C115.156 24.3251 115.27 24.2094 115.27 24.0673V21.0447C115.275 20.9026 115.161 20.7869 115.017 20.7869L115.015 20.7853ZM128.5 20.8007V20.3147C128.5 18.8849 129.049 18.2473 130.277 18.2473C131.011 18.2473 131.6 18.3929 132.26 18.613C132.342 18.6385 132.426 18.6258 132.491 18.5771C132.559 18.5285 132.597 18.4505 132.597 18.3679V15.404C132.597 15.2907 132.526 15.1905 132.415 15.1571C131.72 14.9498 130.828 14.7371 129.492 14.7371C126.245 14.7371 124.526 16.5665 124.526 20.0257V20.77H122.836C122.695 20.77 122.578 20.8858 122.578 21.0276V24.0659C122.578 24.2078 122.695 24.3238 122.836 24.3238H124.526V36.3872C124.526 36.5312 124.643 36.6453 124.784 36.6453H128.299C128.443 36.6453 128.557 36.5312 128.557 36.3872V24.3246H131.842L136.873 36.3872C136.303 37.6532 135.74 37.9059 134.974 37.9059C134.355 37.9059 133.7 37.7211 133.034 37.3544C132.972 37.3218 132.896 37.3163 132.831 37.3354C132.763 37.3598 132.706 37.4087 132.679 37.4739L131.486 40.0901C131.429 40.2151 131.478 40.359 131.597 40.4242C132.842 41.098 133.964 41.386 135.352 41.386C137.949 41.386 139.386 40.1743 140.649 36.9197L146.751 21.1528C146.784 21.0735 146.773 20.9839 146.724 20.9135C146.678 20.8437 146.599 20.8016 146.515 20.8016H142.853C142.741 20.8016 142.643 20.8714 142.608 20.9743L138.856 31.6874L134.749 20.9673C134.711 20.8676 134.616 20.8016 134.51 20.8016H128.5V20.8007ZM120.682 20.7853H117.164C117.022 20.7853 116.905 20.901 116.905 21.0431V36.3872C116.905 36.5312 117.022 36.6453 117.164 36.6453H120.682C120.823 36.6453 120.94 36.5312 120.94 36.3872V21.0442C120.94 20.9021 120.826 20.7863 120.682 20.7863V20.7853ZM118.943 13.7982C117.549 13.7982 116.419 14.9262 116.419 16.3196C116.419 17.7138 117.549 18.8431 118.943 18.8431C120.337 18.8431 121.464 17.7138 121.464 16.3196C121.464 14.9264 120.334 13.7982 118.943 13.7982ZM149.756 25.719C148.365 25.719 147.281 24.6011 147.281 23.2436C147.281 21.8861 148.378 20.7554 149.769 20.7554C151.16 20.7554 152.244 21.873 152.244 23.2295C152.244 24.587 151.147 25.719 149.756 25.719ZM149.769 21.0015C148.501 21.0015 147.542 22.0094 147.542 23.2436C147.542 24.4772 148.495 25.4716 149.756 25.4716C151.024 25.4716 151.983 24.4645 151.983 23.2295C151.983 21.9958 151.03 21.0015 149.769 21.0015ZM150.318 23.484L151.019 24.4642H150.427L149.796 23.565H149.256V24.4642H148.761V21.866H149.919C150.525 21.866 150.921 22.1749 150.921 22.6948C150.924 23.1208 150.677 23.3811 150.321 23.484H150.318ZM149.9 22.3118H149.256V23.1336H149.9C150.22 23.1336 150.413 22.9763 150.413 22.7223C150.413 22.4549 150.22 22.3118 149.9 22.3118Z" fill="#F06527"/>
</g>
<defs>
<clipPath id="clip0_8_344">
<rect width="151.667" height="52" fill="white" transform="translate(0.458496)"/>
</clipPath>
</defs>
</svg>
