<svg width="20" height="21" viewBox="0 0 20 21" fill="none" xmlns="http://www.w3.org/2000/svg">
<mask id="mask0_8_428" style="mask-type:alpha" maskUnits="userSpaceOnUse" x="0" y="0" width="20" height="21">
<rect y="0.5" width="20" height="20" fill="#D9D9D9"/>
</mask>
<g mask="url(#mask0_8_428)">
<path d="M10.0003 15.7292L6.542 17.8125C6.38923 17.9097 6.2295 17.9514 6.06284 17.9375C5.89617 17.9236 5.75034 17.8681 5.62534 17.7708C5.50034 17.6736 5.40312 17.5521 5.33367 17.4062C5.26423 17.2604 5.25034 17.0972 5.292 16.9167L6.20867 12.9792L3.14617 10.3333C3.00728 10.2083 2.92048 10.066 2.88575 9.90625C2.85103 9.74653 2.86145 9.59028 2.917 9.4375C2.97256 9.28472 3.05589 9.15972 3.167 9.0625C3.27812 8.96528 3.43089 8.90278 3.62534 8.875L7.667 8.52083L9.2295 4.8125C9.29895 4.64583 9.40659 4.52083 9.55242 4.4375C9.69825 4.35417 9.84756 4.3125 10.0003 4.3125C10.1531 4.3125 10.3024 4.35417 10.4483 4.4375C10.5941 4.52083 10.7017 4.64583 10.7712 4.8125L12.3337 8.52083L16.3753 8.875C16.5698 8.90278 16.7226 8.96528 16.8337 9.0625C16.9448 9.15972 17.0281 9.28472 17.0837 9.4375C17.1392 9.59028 17.1496 9.74653 17.1149 9.90625C17.0802 10.066 16.9934 10.2083 16.8545 10.3333L13.792 12.9792L14.7087 16.9167C14.7503 17.0972 14.7364 17.2604 14.667 17.4062C14.5976 17.5521 14.5003 17.6736 14.3753 17.7708C14.2503 17.8681 14.1045 17.9236 13.9378 17.9375C13.7712 17.9514 13.6114 17.9097 13.4587 17.8125L10.0003 15.7292Z" fill="#FFA41B"/>
</g>
</svg>
